<?xml version="1.0" standalone="no"?>
<!DOCTYPE svg PUBLIC "-//W3C//DTD SVG 20010904//EN"
 "http://www.w3.org/TR/2001/REC-SVG-20010904/DTD/svg10.dtd">
<svg version="1.0" xmlns="http://www.w3.org/2000/svg"
 width="1500.000000pt" height="1000.000000pt" viewBox="0 0 1500.000000 1000.000000"
 preserveAspectRatio="xMidYMid meet">

<g transform="translate(0.000000,1000.000000) scale(0.100000,-0.100000)"
fill="#000000" stroke="none">
<path d="M5192 6598 c-26 -34 -72 -91 -102 -128 -30 -37 -109 -136 -175 -220
-66 -84 -166 -211 -222 -283 -57 -72 -103 -134 -103 -138 0 -5 10 -11 23 -14
12 -3 450 -6 972 -8 1016 -3 959 0 1070 -53 261 -125 259 -487 -3 -619 -111
-55 -103 -55 -1127 -55 l-945 0 -5 -22 c-3 -13 -4 -385 -3 -828 l3 -805 500 0
500 0 5 410 5 410 485 6 c267 3 521 11 565 17 153 22 345 72 480 125 70 28
245 122 305 165 132 92 261 243 334 389 75 149 106 294 106 489 -1 281 -57
464 -206 669 -162 222 -432 390 -774 482 -90 24 -137 32 -305 53 -144 18 -220
20 -748 20 l-587 0 -48 -62z"/>
<path d="M8350 6655 c-8 -2 -67 -8 -130 -15 -63 -6 -133 -15 -155 -20 -156
-34 -290 -75 -301 -92 -3 -4 29 -45 71 -91 42 -45 106 -126 142 -180 66 -98
153 -279 173 -356 5 -22 15 -60 21 -83 5 -24 14 -47 18 -51 4 -4 30 3 57 15
l49 23 697 5 c445 3 700 9 707 15 8 8 183 236 254 329 12 17 64 84 115 150 51
67 109 143 130 170 20 27 58 76 84 109 26 33 45 64 42 68 -5 8 -1935 11 -1974
4z"/>
<path d="M8227 5403 c-3 -5 -10 -55 -16 -113 -19 -172 -48 -281 -115 -442 -20
-48 -36 -91 -36 -96 0 -19 97 -23 645 -31 473 -6 557 -10 600 -24 110 -37 157
-121 140 -252 -12 -102 -73 -154 -210 -180 -63 -12 -208 -15 -815 -15 l-738 0
-48 -64 c-42 -55 -241 -310 -397 -510 -26 -33 -67 -86 -89 -116 -23 -30 -44
-57 -48 -60 -19 -16 -49 -64 -44 -71 8 -13 2164 -12 2261 1 175 23 230 33 317
55 249 64 417 155 553 298 86 91 143 189 182 317 43 140 55 220 56 370 0 176
-20 275 -85 415 -83 179 -258 316 -500 393 -225 71 -247 73 -895 82 -551 8
-663 15 -691 43 -9 9 -22 9 -27 0z"/>
</g>
</svg>
